<svg width="200" height="120" viewBox="0 0 200 120" fill="none" xmlns="http://www.w3.org/2000/svg">
  <!-- House shape -->
  <path d="M40 45L100 15L160 45V85C160 88.3137 157.314 91 154 91H46C42.6863 91 40 88.3137 40 85V45Z" fill="#E63946"/>
  
  <!-- Roof -->
  <path d="M30 50L100 10L170 50L160 45L100 15L40 45L30 50Z" fill="#C41E3A"/>
  
  <!-- Door -->
  <rect x="85" y="65" width="30" height="26" rx="2" fill="#FFFFFF"/>
  
  <!-- Windows (eyes) -->
  <circle cx="65" cy="50" r="8" fill="#FFFFFF"/>
  <circle cx="135" cy="50" r="8" fill="#FFFFFF"/>
  
  <!-- Smile -->
  <path d="M75 65C80 72 90 75 100 75C110 75 120 72 125 65" stroke="#FFFFFF" stroke-width="3" stroke-linecap="round" fill="none"/>
  
  <!-- Text -->
  <text x="100" y="110" text-anchor="middle" fill="#E63946" font-family="Arial, sans-serif" font-size="14" font-weight="bold">MAKE MY PROPERTYZ</text>
  <text x="100" y="125" text-anchor="middle" fill="#666666" font-family="Arial, sans-serif" font-size="8">Where Dreams Meets Destiny</text>
</svg>
